# xmcd
#
# Track frame offsets: 
#        150
#        11992
#        23453
#        36121
#        44535
#        54811
#        66144
#        78297
#        87934
#        99820
#        112266
#        123688
#        134577
#        145655
#        154488
#        167508
#        177640
#        189072
#        198481
#        208311
#        217693
#        229554
#        237703
#        248713
#        260235
#        272921
#        284007
#        295491
#        306971
#        316269
#
# Disc length: 4358 seconds
#
# Revision: 0
# Processed by: cddbd v1.5.2PL0 Copyright (c) Steve Scherf et al.
# Submitted via: ExactAudioCopy v0.99pb5
#
DISCID=c311041e
DTITLE=Roy Lee Johnson - When A Guitar Plays The Blues
DYEAR=1988
DGENRE=Blues
TTITLE0=Mister Moonlight
TTITLE1=Love Is Amazing
TTITLE2=Sea Breeze
TTITLE3=Black Pepper Will Make You Sneeze
TTITLE4=Too Many Tears
TTITLE5=Nobody Does Something For Nothing
TTITLE6=Busybody
TTITLE7=I'm So Happy
TTITLE8=My Best Just Ain't Good Enough
TTITLE9=Love Birds
TTITLE10=When A Guitar Plays The Blues
TTITLE11=Plowing Playboy
TTITLE12=That's All I Need
TTITLE13=Slowly I'm Falling In Love With You
TTITLE14=Two Doors Down
TTITLE15=Stanback Headache Powder
TTITLE16=It's All Over
TTITLE17=Busybody
TTITLE18=So Anna Just Love Me
TTITLE19=Boogaloo #3
TTITLE20=Cheer Up Daddy's Comin' Home
TTITLE21=Guitar Man
TTITLE22=Can You Handle It
TTITLE23=Chunk Some Love
TTITLE24=Take Me Back And Try Me
TTITLE25=She Put The Whammy On Me
TTITLE26=Don't Do This To Me
TTITLE27=Two Wrongs (Won't Make It Right)
TTITLE28=Come Here Baby
TTITLE29=I've Got A Feeling
EXTD=
EXTT0=Mister Moonlight
EXTT1=
EXTT2=
EXTT3=
EXTT4=
EXTT5=
EXTT6=
EXTT7=
EXTT8=
EXTT9=
EXTT10=
EXTT11=
EXTT12=
EXTT13=
EXTT14=
EXTT15=
EXTT16=
EXTT17=
EXTT18=
EXTT19=
EXTT20=
EXTT21=
EXTT22=
EXTT23=
EXTT24=
EXTT25=
EXTT26=
EXTT27=
EXTT28=
EXTT29=
PLAYORDER=
